# Alias OBJ Model File
# Exported from SketchUp, (c) 2000-2012 Trimble Navigation Limited
# File units = meters

mtllib Escenario 2 - Objeto 1 (Merkaba).mtl

g Mesh1 Group1 Model

usemtl _Translucent_Glass_Gray_1
v 1.16784 0.7968 -1.21365
vt 36.6142 17.5889
vn 0.480943 0.273451 -0.833018
v 0.700701 1.5936 -1.21365
vt 48.8189 42.995
v 1.4014 1.5936 -0.8091
vt 24.4094 42.995
f 1/1/1 2/2/1 3/3/1

v 0.467134 0.7968 -1.6182
vt 61.0236 17.5889
f 4/4/1 2/2/1 1/1/1

vt -48.8189 11.7259
vn -0.961886 0.273451 2.8664e-008
v 0.467134 0.7968 -0.8091
vt -24.4094 11.7259
vt -36.6142 37.1321
f 4/5/2 5/6/2 2/7/2

vt -48.8189 42.2784
vn 6.05492e-013 -1 -7.49608e-013
vt -36.6142 21.1392
vt -24.4094 42.2784
f 4/8/3 1/9/3 5/10/3

vt -6.30021e-007 28.1856
vn -0.434655 0.494267 -0.752845
vt -6.30084e-007 -1.8189e-007
vt 24.4094 -1.8193e-007
v 0.700701 1.5936 -0.40455
vt 24.4094 28.1856
f 3/11/4 1/12/4 5/13/4 6/14/4 

vn 0.961886 -0.273451 -2.86651e-008
v 1.16784 0.7968 -0.40455
vt 12.2047 17.5889
f 3/3/5 7/15/5 1/1/5

v 1.86854 0.7968 -0.8091
vt 12.2047 29.3148
vn 0.480943 0.273451 0.833018
vt 6.29944e-007 54.721
vt -12.2047 29.3148
f 8/16/6 3/17/6 7/18/6

f 8/15/1 1/1/1 3/3/1

vt -24.4094 4.16386e-012
vn -1.73217e-013 -1 8.86766e-016
vt -12.2047 21.1392
f 8/19/7 7/20/7 1/9/7

vt -36.6142 31.7088
vn -0.86931 -0.494267 2.59062e-008
vt -12.2047 31.7088
vt -12.2047 59.8944
vt -36.6142 59.8944
f 1/21/8 7/22/8 6/23/8 2/24/8 

v 0.934268 0 -0.8091
vt 24.4094 -7.81728
f 9/25/5 1/1/5 7/15/5

vt 12.2047 9.7716
vn -0.480943 -0.273451 -0.833018
vt 24.4094 35.1778
vt -6.29999e-007 35.1778
f 9/26/9 5/27/9 1/28/9

vt -36.6142 -1.95432
vn -0.480943 -0.273451 0.833018
vt -24.4094 23.4518
vt -48.8189 23.4518
f 9/29/10 7/30/10 5/31/10

vt -36.6142 48.858
f 6/32/10 5/31/10 7/30/10

v 0.467134 0.7968 -7.1122e-017
vt -6.30049e-007 11.7259
vn -0.961886 0.273451 2.86661e-008
vt -12.2047 37.1321
f 10/33/11 6/34/11 5/6/11

vt -36.6142 29.3148
vt -24.4094 54.721
f 10/35/6 7/18/6 6/36/6

vt 1.80194e-011 42.2784
vn 6.06516e-013 -1 7.49608e-013
f 10/37/12 5/10/12 7/20/12

vn 1.03879e-012 -1 8.8673e-016
f 5/10/13 1/9/13 7/20/13

vt 12.2047 60.5839
f 2/38/9 1/28/9 5/27/9

v 1.4014 1.5936 -1.6182
vt -12.2047 60.5839
vt -6.29969e-007 35.1778
f 11/39/9 1/40/9 2/38/9

vn 0.961886 -0.273451 -2.86663e-008
f 11/2/14 3/3/14 1/1/14

vt 48.8189 14.0928
vn -2.85518e-012 1 -8.99618e-013
vt 36.6142 35.232
vt 24.4094 14.0928
f 11/41/15 2/42/15 3/43/15

vt 12.2047 35.232
vn -3.37611e-012 1 2.66038e-015
f 6/44/16 3/43/16 2/42/16

v 0.934268 2.3904 -0.8091
vt -12.2047 80.1271
vt 6.29986e-007 54.721
f 12/45/6 6/36/6 3/46/6

vt -24.4094 62.5382
vn -0.961886 0.273451 2.8665e-008
f 12/47/17 2/7/17 6/34/17

vt 36.6142 68.4012
f 12/48/1 3/3/1 2/2/1

vt -24.4094 49.3248
vn -0.434655 0.494267 0.752845
vt -48.8189 49.3248
vt -48.8189 21.1392
vt -24.4094 21.1392
f 3/49/18 2/50/18 5/51/18 7/52/18 

v 0 1.5936 -0.8091
vt 36.6142 60.5839
f 13/53/9 2/38/9 5/27/9

vt 24.4094 56.3712
vn -1.81818e-012 1 2.66034e-015
f 13/54/19 6/44/19 2/42/19

vt -61.0236 48.858
f 13/55/10 5/31/10 6/32/10

f 5/6/17 6/34/17 2/7/17

f 6/36/6 7/18/6 3/46/6

v 1.4014 1.5936 -2.7842e-008
vt -12.2047 48.858
f 14/56/10 6/32/10 7/30/10

vt 4.20046e-007 14.0928
vn -2.85825e-012 1 8.99619e-013
f 14/57/20 3/43/20 6/44/20

vt 6.29986e-007 42.995
vn 0.961886 -0.273451 -2.86638e-008
f 14/58/21 7/15/21 3/3/21

